<?xml version="1.0" encoding="utf-8"?>
<!-- Generator: Adobe Illustrator 22.1.0, SVG Export Plug-In . SVG Version: 6.00 Build 0)  -->
<svg version="1.1" id="Layer_1" xmlns="http://www.w3.org/2000/svg" xmlns:xlink="http://www.w3.org/1999/xlink" x="0px" y="0px"
	 viewBox="0 0 55.8 43.5" style="enable-background:new 0 0 55.8 43.5;" xml:space="preserve">
<style type="text/css">
	.st0{fill:#FFFFFF;}
</style>
<path class="st0" d="M27.9,17.4l21.8,5.4c3.8-1.5,6.1-3.4,6.1-5.4V8.7C55.8,3.9,43.3,0,27.9,0C12.5,0,0,3.9,0,8.7v8.7
	c0,4.8,12.5,8.7,27.9,8.7L27.9,17.4L27.9,17.4z"/>
<path class="st0" d="M49.7,31.5l-21.8-5.4v8.7l21.8,5.4c3.8-1.5,6.1-3.4,6.1-5.4c0-1.8,0-6.9,0-8.7C55.8,28.2,53.5,30,49.7,31.5z"/>
<path class="st0" d="M0,26.1C0,28,0,33,0,34.8c0,4.8,12.5,8.7,27.9,8.7v-8.7C12.5,34.8,0,30.9,0,26.1z"/>
</svg>
